<svg width="1963" height="2500" viewBox="0 0 256 326" xmlns="http://www.w3.org/2000/svg" preserveAspectRatio="xMinYMin meet"><g fill="#2BA977"><path d="M114.8 0H168v244.2a352.4 352.4 0 0 1-69.2 7.2c-65 0-98.9-29.2-98.9-85 0-53.8 36-88.7 91.6-88.7 8.6 0 15.2.7 23.2 2.7V0zm1.9 124.4c-6.3-2-11.4-2.7-18-2.7-27 0-42.5 16.4-42.5 45.3 0 28 14.9 43.5 42.1 43.5 6 0 10.7-.3 18.4-1.4v-84.7z"/><path d="M255.2 84.3v122.2c0 42.1-3.2 62.4-12.4 79.8-8.7 16.8-20 27.4-43.6 39l-49.4-23.2c23.5-11 34.9-20.6 42.2-35.3 7.6-15.1 10-32.6 10-78.5v-104h53.2zM196.6 0H250v54.1h-53.3V0z"/></g></svg>