<svg xmlns="http://www.w3.org/2000/svg" width="64" height="64" viewBox="0 0 32 32" preserveAspectRatio="xMidYMid"><path d="M9.6 26.9c-1.3-1-2.6-1.9-3.4-3.2-2-2.3-3.4-5-4.3-7.7-.6-1.8-.8-3.7-1.6-5.5-.8-1.2.1-2.6 1.5-3 .6-.1 1.7-.7.4-.3-1.2.9-1.3-.8 0-.9.7-.1 1-.8.8-1.4-1-.5 2-1.2.6-2C2 1.2 5.8.9 4.9 2.8c-.3 1.5 2.6-.3 2 1.4.6.8 2.5.2 2.4 1.4 1 0 1.3.9 2.3 1 1 .4 2.7.7 3 1.8-1 .7-3.2-1.6-3.3.5.3 3 .2 6.3 1.4 9.2.5 1.8 1.8 3.2 3 4.5 1 1.4 2.6 2.4 4.1 3.2 1.4.6 2.8 1 4.3 1.3.6-.5 1.7-2.2 2.6-1.5 0 .9-1.9 1.7 0 1.6 1-.3 1.7.8 2.5-.2.8 1 3.3-.6 2.7 1.3-.7.5-1.8.2-2.6.9-1.2-.6-2.2.6-3.6.4-1.5.3-3.1.4-4.7.4-2.5-.2-5.1-.3-7.5-1.2-1.4-.4-2.7-1.1-4-2zm2.1 1c1.4.5 2.7 1 4.1 1.3 2.3.3 4.7.8 7 .3-1-.4-2 .2-3.1-.3-1.3.3-2.6 0-4-.2-1.4-.7-3-1.1-4.3-2-1.7-.6.9.8 1.3 1l-1.5-.6c-.9-.5-1-.4 0 0l.5.4zM9.2 26c1.3.5 0-.9-.6-.8-.3-.5-1-.8-.5-1-1 .3-1-1.2-1.4-1-1-.3-.4-1.4-1.6-2.1-.1-.8-1.2-1.4-1.5-2.5-.2-.5-1.2-2.1-.6-.6.6 1.4 1.6 2.6 2.4 3.9a8 8 0 0 0 2.5 3c.4.4.7 1 1.3 1.1zm-3.7-4c0-.3.2.3 0 0zm5.2 4.6c.3-.1-.4-.2 0 0zm.7.2c0-.3-.3.2 0 0zm1 .4c.3-.4-.7-.2 0 0zm1.4.8c.3-.3-.8 0 0 0zM11 26c.7-.4-.8 0 0 0zm.7.4c0-.3-.3 0 0 0zm3.3 2c.5.4 3 .8 1.5.2-.3 0-3-.8-1.5-.2zm-5.3-4c0-.3-.8-.3 0 0zm1.6.8c.4-.2-.8-.2 0 0zm1.3.8c.6-.2-1-.2 0 0zM9 23.7c.6.4 2.5 0 1-.3-.7-.4-2.3-.7-1.2.2H9zm4.3 2.6c.3-.4-1-.3 0 0zm-1.3-1c1.5.4-1.3-1-.3-.2h.2l.1.2zm2.7 1.5c1.4 0-1.3-.2 0 0zm-6.2-4c0-.2-.4 0 0 0zm8.6 5.3c0-.4-.5.4 0 0zm-6.2-3.8c0-.2-.4 0 0 0zm-2.3-1.6c.8 0-1.1-.4 0 0zm-2.7-1.8c-.1-.4-1-.7 0 0zm7.2 4.6c-.2-.2-.1 0 0 0zm4.5 2.7c0-.2-.3.1 0 0zm-5-3.1c.2-.4-.6-.1 0 0zm-3.3-2.2c.6 0-1-.4 0 0zm5.7 3.6c1-.4-1-.2 0 0zm-3-2c1.1.1-1.3-.8-.2-.1h.2zm3.9 2.3c1-.6.7 1.5 1.7.2 1-.8-.9 1 .4.1 1-.6 2.3.3 3.2.6.6 0 1.2.6 1.8.2 1.3-.3-2.4-.5-1.4-1-1.1.3-2-.5-2.5-1.2-1.3-.3-2.7-1-3.4-2-.2-.5.4 0-.2-.7-.8-.6-1.1-1.4-1.6-2.2-.7-.4-.7-1.3-.8 0 0-.9-.7-1.4-1-1.2 0-.7.9-.4.3-1-.1-.7-.5-1.5-.6-2.4-.2-.4 0-1.4-.6-.4-.3 1-.1-1.3.2-.5.5-.8-.1-.7-.2-.6.3-.6.2-1.5 0-1.2.1-.7.2-2.5-.3-2.2.3-.7.6-3.3-.7-2.3-.5 0-1.4.2-1.8.4 1.3.7-.1.2-.7.1 0 .7-.6.4-1.2.4 1 .1-.5 1-1.1.7-.8.4.6 1.3 0 1.6 0 .5-1.2-.1-1.1.9-.8-.3-.1 1.2.2.7 1.3.3 1 1.1 1 1.9-.2.4-1-1-.2-1-.7-1-.7-.4-1.3.1-.1 0 1.4.8.4 1.1 1 .1 1 .9 1.1 1.4.5.5.4-.6 1 0-.3-.6-2-1.6-.7-1.3 0-.6-.2-1 .2-1 .4-.8-.4 1.8.5.9.3-.1.3-.8.8 0 .7.7.2 1.2-.7.6.1.5 1.2.8 1 1.7.3.8.6.5.8.4.2.8.4.2.4-.2 1 .3.7.8 1 1.2.7.3-1-2 .2-.7 1.2 1.1.5 1.6-.6 1.4.7 0 .9.9 1.7.9.8.3 1.3 1.8 0 1.2-.5-.5-2.1-1-.8-.2 1.3.6 2.3 1 3.4 1.7.9.6 1.3 1.3 1.6 1.4-.7.3-2.2-.3-1.1-.5-.7 0-1.4-.4-.8.4.6.5 2 .4 2.2.5-.2.4-.6.5 0 .5-.6.4.2.4.3.6zm-1.3-3.7c-.4-.4-.5-1.2-.1-.5.2 0 .7 1.2 0 .5zm4.3 2.7c.2 0 0 .2 0 0zm-5-3.8c0-.6.2.5 0 0zm-.4-.5c-.5-1 .6.2 0 0zm-5.2-3.6c.3-.1.1.5 0 0zm4.1 2.2c.2-.7.2.6 0 0zm-2.9-2c-.2-.4.4.3 0 0zm2.5.8c-.4-1 .4-.6.1.2v-.2zM7.7 16c-.2-.3-.6-1.4-.5-1.7.1.5 1.1 2.2.5.7-.6-1.2.8.4 1 .7 0 .3-.4 0-.1.7-.6-.8-.4.4-.9-.4zm-1.3-1c0-.7.3.6 0 0zm.6.3c.2-.6.4.8 0 0zm-1.5-1.1c-.5-.5-.9-1 0-.3.4 0-.7-1 .1-.4.9.2.4 1.5-.1.7zm.8 0c.2-.3.1.2 0 0zm.4.1c-.4-.8.6.4 0 0zm-.9-.9c-1.4-1.3 1.8.7.2.3l-.2-.3zm4.1 2.4c-.6-.3-.1-2.6 0-1 .7-.3 0 .7.5.7 0 .7-.3.9-.5.3zm1.6 1c0-.7.1.4 0 0zm-.3-.3c0-.3 0 .3 0 0zM6.1 13c-1-1.3 2.7 1.3.6.3-.2 0-.5 0-.6-.3zm3 1.6c-.1-1.1.1.1 0 0zm2.2 1.4c.2-.6 0 .4 0 0zm-5-3.5c.5-.1 2.2 1 .6.3-.1-.2-.5 0-.7-.3zM11 15c0-1.1.3-.7 0 .1V15zM6.6 12c.3-.3-.6-1.5.2-.4.3.3.9.4.3.5.9.7-.2.2-.5 0zm4.1 2.4c.2-1.2.2.8 0 0zM6.2 11c.1-.1 0 .2 0 0zm1 .6c.3-.6.6.6 0 0zm3 1.7c0-.2.1.3 0 0zm-.1-.4c-.4-1 .4.5 0 0zm-.3-.7c0-.4.3.6 0 0zm.4-.7c-.2-.5.4-2.2.5-1.1-.3.8-.1 1.3.1.2.4-1 0 1.7-.6 1zm.5-2.5c.1-.2 0 .2 0 0zM10 23c-.2-.1 0 .1 0 0zm1.4.8c.9.2.9-.2.1-.3-.4-.3-1.6-.7-.5 0 0 .2.3.2.4.3zm-2.9-2c.5.4 1.7 1 .7.2.3-.5-.7-.7-.4-1-.9-.5-.7-.5 0-.4-1.1-.5.1-.5 0-.7-.4 0-2-.7-1 0-1-.5-.3.2-.6.2-1-.3 1 .7-.1.5.6.4 1.5 1.1.2.4-.1.3 1 .6 1.2.8zm1.6 1c1.8.5-1-.8 0 0zm7.9 4.7c0-.4-.3.3 0 0zm.8.4c.4-.5 0 .6.7-.1 0-.6 0-1-.8-.3-.2.2-.3.7.1.4zm-13-8.2c0-.5-.9-.5 0 0zm1 .6c-.4-.5-1.2-.5 0 0zm4.9 3c.5.4 2.2.3.6 0-.3-.3-1.6-.2-.6 0zm6.8 4.2c.7-.6-.7.3 0 0zm1.5 1c0-.1-.3.1 0 0zm0-.2c.9-.9-.8 0 0 0zM3.7 18c-.7-1-.4-1.5-1-2.3-.2-.6-1.2-2-.6-.6.6 1 .7 2.3 1.6 2.9zm16 10c1.6-1-.5-.4 0 0zm1.2.4c.8-.6-.4 0 0 0zM5.6 18.7c.2-.3-.5 0 0 0zm15.1 9.5c.7-.4-.2-.4-.1 0zm-10-6.2c0-.4-.4 0 0 0zm.6.3c-.1-.4-.3 0 0 0zM22 28.6c1-.7-.6-.2-.2 0h.2zm-.4-.2c.8-.7-.8.3 0 0zm1.9 1.2c.5-.3-.7-.1 0 0zM6 18.5c.7.2 2.7 1.7 1.5.1-.6-.2-.2-1.7-.9-1.4.5.7.4 1-.5.5-1.1-.5-.6.3-.4.5-.3.1.4.3.3.3zM3 16c0-.5-1.2-2.8-.6-1.1.2.3.1 1 .6 1.1zm5.7 3.6c-.3-.3 0 0 0 0zm.9.2c0-.6-1-.2 0 0zm7.6 4.8c-.2-.4-.6 0 0 0zm.3.2c0-.2-.2 0 0 0zm3 2c.3-.3-.3-.1 0 0zm-16-10.4c.8-.3-.9-.2 0 0zm12 7.6c0-.6-.5.1 0 0zM4.2 15.7c.5-.2-.5-.2 0 0zm1.5.7c0-.2-.1 0 0 0zM24.5 28c.7-.1 2.3.4 2.5-.2-.8 0-2.9-.5-3 .2h.5zM6.2 16.5c0-.5-.4 0 0 0zm-4-2.8c-.2-1-.7-.1 0 0zm1 .3c0-.4-1-.3 0 0zm.5.2c-.2-.1-.1.2 0 0zm3.5 2.3c.1-.2-.4-.1 0 0zm-3.9-2.9c0-.8-1.1-.1 0 0zm-2-1.3c0-.3-.2.2 0 0zm.3-.2c0-.4-.2 0 0 0zm1.7 1c.7-.3-1.3-.6-.2 0h.2zM25 26.5c.5-.4-.5 0 0 0zm2.7 1.4c.1-.5-.5 0 0 0zM3.4 12.2c.1-.5-.5.1 0 0zm-2.3-1.5c-.1-.7 0-2 1.1-1.6-1.6.4 1.1 2 .8.7.6 0 1.3-.4 1 .3C5.1 9.9 6 8.8 7.3 8.9c1-.1 2-.2 3.2-.6.8 0 1.7-1 1.2-1.6-1.2 0-2.5 0-3.8.3-1.4.4-2.8 1-4.3 1.2-1.4.2.3.5 0 .6-.8.2.8.4-.2.7-.6-.1-1.2-.3-1-1-1.3.2-2.6.8-1.5 2.2h.1zM4.4 9c.4-1.2 1.8 1 .6.2L4.4 9zm.1-.6c.5-.3.3.2 0 0zm.6 0c0-.5 1.4.3.2.2l-.2-.2zm.8-.3c.3-.3 0 .3 0 0zm.2-.1c.5-.6 2.8-.4 1.1 0-.4-.4-.8.1-1 0zm3-.5c0-1.6 1.5.6 0 0zm.9 0c.3-.8 1.2-.3.1-.2 0 .1 0 .5-.1.2zm-7 4.3c1-.5-.9-.5 0 0zm.8.2c.3-.3-.7-.1 0 0zm-2-1.4c.5-.4-.7-.2 0 0zm27.4 17.2c0-.5-.4.2 0 0zm-2.8-2c.1-.5-.3.1 0 0zM30 28c.7 0 2.2-.2.6-.2-.2 0-1.4 0-.6.2zM4.4 11.7c.6 0 1-.7-.1-.7-1.7-.1 1.4.6-.2.4-.2.1.3.3.3.3zm.5.2c0-.3-.2.2 0 0zm.7-1.6c.2-.4-.4-.1 0 0zm-2-3.4c1-.3 2.5-.8 3 .2-.5-.6-.2-1.2.3-.3.7.9 1-.4.6-.7.5.6 1 .9.3 0 .8-1-1.6.1-2.2.1-.2.1-2.7.6-2 .7zm.6-1.2c.6-.4 2.1.3 1.1-.4 0-.1-2 .5-1.1.4zm2.2.1c.7 0-.3-1 .6-.5-.2-.5-1-.6-1.5-.7-.2.4.5 1.2 1 1.2zm-1.8-2c.2-.4-.5.2 0 0zm.9.2c1.1-.2-.3-.5-.3 0h.3zM3.8 2.7c-.8-1 1.5.1.7-1-.7-.5-1.4.7-.7 1zm10.4 5.6c.4-.7-1.5-.9-.2-.2 0 0 0 .2.2.2z"/></svg>