<svg height="2500" preserveAspectRatio="xMidYMid" width="2336" xmlns="http://www.w3.org/2000/svg" viewBox="0 0 256 273.6"><path d="m191.5 186.3.1 60.5-53.7 26.8v-60.5zm64.5-32.4v60.8l-45.8 22.8v-60.4zm-64.5-48.6v59.9L138 191.8V132zm64.5-32v59.4L210.1 156V96zm-126.3-7.1 48 24.2-49.8 25-47-23.7zM63.1 32.5l45.7 23-49 25.6-47-23.5zm130.7.4L243 57.6l-44 22-48-24.2zM128.2 0l44.4 22.2L130 45 84.4 22z" fill="#4dabcf"/><path d="m119 132-36.2-18.3v78.6s-44.3-94-48.4-102.5c-.5-1.1-2.7-2.3-3.2-2.6L0 71.2v139l32.2 17.1v-72.6l44.2 85c.4 1 4.8 9.8 9.5 13 6.3 4 33 20.2 33 20.2z" fill="#4d77cf"/></svg>