<svg xmlns="http://www.w3.org/2000/svg" width="110" height="110" viewBox="0.2 -0.1 110 110" xml:space="preserve"><linearGradient id="a" gradientUnits="userSpaceOnUse" x1="63.8" y1="56.7" x2="118.5" y2="1.8" gradientTransform="matrix(1 0 0 -1 -53.3 66.4)"><stop offset="0" style="stop-color:#387eb8"/><stop offset="1" style="stop-color:#366994"/></linearGradient><path fill="url(#a)" d="M55 0C29 0 28.8 10 28.8 12v12.7h26.7v3.8H18.1C10.2 28.5.2 33.3.2 54.7.2 74.4 8 82 16 82h9.3V68.9c0-5.5 2.7-15.7 15.4-15.7h26.5c4 0 15-1.7 15-14.4V14.6c0-3.2-.6-14.7-27-14.7zM40.3 8.3a4.8 4.8 0 1 1 0 9.6 4.8 4.8 0 0 1 0-9.6z"/><linearGradient id="b" gradientUnits="userSpaceOnUse" x1="97" y1="21.6" x2="155.7" y2="-34.5" gradientTransform="matrix(1 0 0 -1 -53.3 66.4)"><stop offset="0" style="stop-color:#ffe052"/><stop offset="1" style="stop-color:#ffc331"/></linearGradient><path fill="url(#b)" d="M55.4 110c26 0 26.3-10.3 26.3-12.2V85.2H54.9v-3.8h37.4c8 0 18-5 18-26.3 0-23.3-10.6-27.2-15.7-27.2h-9.4v13c0 5.6-2.6 15.7-15.4 15.7H43.3c-4 0-15 2-15 14.4v24.3c0 5.2 3.3 14.6 27.1 14.6zm14.7-8.5a4.8 4.8 0 1 1 0-9.7 4.8 4.8 0 0 1 0 9.7z"/></svg>