<svg xmlns="http://www.w3.org/2000/svg" viewBox="0 0 128 128"><path fill="#f89939" d="M98.2 88.1c15.6-15.6 18.2-38.3 5.8-50.8-12.4-12.4-35.2-9.8-50.8 5.8C37.6 58.8 42 88.6 47.4 94c4.3 4.3 35.2 9.8 50.8-5.8Z"/><path fill="#3499cd" d="M34 65.6C25 56.5 11.8 55 4.6 62.2c-7.3 7.2-5.7 20.4 3.3 29.5 9.1 9 26.4 6.4 29.5 3.3 2.5-2.5 5.7-20.4-3.4-29.4Z"/><path fill="#010101" d="M123.8 85.7c-.6 0-.9-.4-.9-1s.4-1.8 1-3.5c1.1-2.6 1.6-4.5 1.6-5.6 0-.7-.2-1.3-.6-1.7a2 2 0 0 0-1.5-.7c-.9 0-1.9.4-3 1.2-1.2.9-2.7 2.4-4.6 4.5.3-1.4.9-3.3 1.8-5.7l-4.3.8a34.5 34.5 0 0 0-2.7 8.3 39.2 39.2 0 0 1-2.6 2.4 2 2 0 0 1-1.2.4c-.4 0-.7-.1-1-.4-.2-.3-.3-.7-.3-1.2l.3-1.8 1.4-4 1.6-4.5-1.6.1c-1.5 2.8-3.2 4.3-5.1 4.5.5-1.4.8-2.5.8-3.2 0-1-.5-1.4-1.4-1.4-1.1 0-2 .5-2.6 1.5-.6 1-.9 2-.9 3s.5 1.5 1.5 2a23.2 23.2 0 0 1-4.4 4.8c-.6.5-1 .7-1.5.7-.8 0-1.1-.5-1.1-1.5s.4-2.7 1.2-5.3l1.5-5.2h-1l-3.5 2c-.6-1.4-1.7-2-3.1-2-1.2 0-2.5.5-4 1.5-1.6 1-2.8 2.2-3.8 3.8a9.9 9.9 0 0 0-1.4 4 19.2 19.2 0 0 1-3 2.6c-.8.4-1.5.6-2.3.6-2 0-3.2-1.1-3.7-3.4 5.2-1.6 7.8-3.5 7.8-6 0-.9-.3-1.6-1-2.2-.6-.6-1.5-.9-2.6-.9-2.1 0-4 1-5.8 3a10.2 10.2 0 0 0-2.5 6.2A23.5 23.5 0 0 1 62 85c-.8.5-1.4.7-2 .7s-1.2-.3-1.6-.9c-.4-.6-.5-1.4-.5-2.4V80c2.5-2.6 4.2-5 5.3-7.2 1.1-2.3 1.7-4.6 1.7-7a5 5 0 0 0-.4-2c-.2-.5-.5-.8-.8-.8h-.3L59 64.8c-1.6 3-2.9 6.1-4 9.6a31 31 0 0 0-1.5 9c0 1.6.3 2.9 1.1 3.9s1.8 1.4 3 1.4a7 7 0 0 0 3.5-1c1.2-.7 2.6-1.8 4.2-3.3.2 1.1.7 2 1.4 2.8 1 1 2.3 1.5 3.9 1.5 1.4 0 2.7-.3 4-1 1-.7 2.4-1.7 3.8-3.1.1 1 .5 2 1 2.7.8 1 1.7 1.4 2.7 1.4s2-.4 3-1.2c1-.8 2.2-2 3.3-3.7 0 3.3.8 5 2.7 5 .7 0 1.5-.3 2.3-.9s2.2-1.7 4-3.5c1.7-1.6 2.9-3.1 3.7-4.5 1-.2 2-.5 2.8-1-1.8 2.8-2.7 5-2.7 6.7 0 1 .3 1.7.8 2.3.5.6 1 .9 1.8.9 1.6 0 3.8-1.4 6.7-4.2v.6l.1 3.6 4-1a54.6 54.6 0 0 1 .4-5.2c0-.6.3-1.2.8-1.7l1-1.2a33.2 33.2 0 0 1 2.8-2.8l.7-.2c.3 0 .4.2.4.5s-.3 1.3-.8 2.7c-1 2.6-1.6 4.5-1.6 5.8 0 1 .3 1.6.8 2.2.4.6 1 .8 1.9.8 2 0 4.3-1.4 7-4.3v-2c-2 2.3-3.3 3.4-4.2 3.4Zm-65.2-8.3c.8-4 1.6-7 2.4-9.1.8-2.2 1.5-3.3 2-3.3l.4.4.2 1c0 1.6-.5 3.3-1.4 5.4-1 2-2.2 4-3.6 5.6Zm11.7-1c.8-1.2 1.5-1.8 2.3-1.8.8 0 1.2.6 1.2 1.7 0 2.3-1.5 3.9-4.5 4.7 0-1.9.3-3.4 1-4.6Zm17.5 5.9c-1 2-2.1 3-3.3 3-.5 0-.9-.2-1.2-.6-.3-.4-.5-1-.5-1.6 0-1.6.6-3.5 1.6-5.5s2.2-3 3.4-3c.5 0 .9.2 1.1.6.3.3.5.9.5 1.5 0 1.7-.5 3.6-1.6 5.6Z"/><path fill="#fff" d="m75.5 64.9.2.8-.3.9c-.2.3-.4.4-.8.6l-1.1.2c-.8 0-1.3-.1-1.7-.4s-.6-.8-.7-1.4l1-.1c0 .4.1.7.4.8.2.2.5.3 1 .3s.7 0 1-.2l.2-.6c0-.2 0-.4-.2-.5l-1-.4-1.4-.4-.6-.5-.2-.8.1-.7.5-.5.6-.2.8-.2 1.1.2.8.5.3 1h-1a1 1 0 0 0-.3-.6c-.2-.2-.5-.3-.9-.3s-.7 0-.9.2c-.2.2-.3.3-.3.5 0 .1 0 .3.2.4l.3.2a33 33 0 0 0 2.2.7c.3 0 .5.3.7.5Zm4.4 1.4c-.2.2-.5.4-.9.4-.5 0-.8-.2-1.1-.5s-.4-1-.4-1.7.1-1.2.4-1.6.7-.5 1.2-.5c.3 0 .5.1.8.3l.4.8h1a2 2 0 0 0-.8-1.4c-.4-.3-.9-.4-1.5-.4-.5 0-.9 0-1.3.3a2 2 0 0 0-.9 1c-.2.5-.3 1-.3 1.6 0 1 .2 1.6.7 2.1.5.5 1 .7 1.8.7.6 0 1.1-.1 1.5-.5.5-.4.7-.9.8-1.5l-.9-.1c0 .5-.2.8-.5 1Zm2.2 1h1v-5.5h-1v5.5Zm0-6.5h1v-1.1h-1v1Zm6.7 1h-1.2L85.4 64v-4.3h-1v7.6h1V65l.7-.6 1.8 2.8h1.2l-2.4-3.5 2.1-2Zm1-1h1v-1.1h-1v1Zm0 6.5h1v-5.5h-1v5.5Zm4.4-.8h-.7l-.2-.2V62.5h1v-.7h-1v-2l-1 .6v1.4h-.6v.7h.6v3.2c0 .5 0 1 .2 1 0 .3.2.4.3.5l.8.2.8-.1-.2-.8Z"/></svg>